<svg width="38" height="50" viewBox="0 0 38 50" fill="none" xmlns="http://www.w3.org/2000/svg">
<path d="M18.0354 0.635153C17.4004 0.791387 16.8177 1.11224 16.3462 1.56536C15.8746 2.01848 15.5308 2.58788 15.3494 3.21618C15.2725 3.49691 15.1361 3.75779 14.9494 3.98116C14.7104 4.20116 14.6624 4.21016 12.7994 4.23916L10.8994 4.26818V10.5682H27.1474V4.26818L25.1974 4.23916C23.2764 4.21016 23.2384 4.21016 22.9974 3.98116C22.8321 3.80495 22.7108 3.59216 22.6434 3.36016C22.4875 2.72928 22.169 2.15025 21.7197 1.68075C21.2703 1.21124 20.7058 0.867649 20.0824 0.684164C19.4117 0.519464 18.7132 0.502733 18.0354 0.635153Z" fill="white"/>
<path d="M2.57072 8.13936C1.89838 8.38943 1.34993 8.8916 1.04172 9.53935L0.812714 10.0463L0.783715 28.3863C0.754715 48.5533 0.726715 47.3863 1.33772 48.2663C1.73732 48.8233 2.32471 49.2172 2.99171 49.3754C3.34571 49.4514 8.00971 49.4753 19.3167 49.4513L35.1347 49.4224L35.6987 49.1353C36.3675 48.7873 36.8722 48.1898 37.1037 47.4723C37.2087 47.1093 37.2277 43.6973 37.2277 28.5383V10.0444L36.9987 9.53734C36.836 9.20569 36.6124 8.90753 36.3397 8.65834C35.6327 8.02734 35.3557 7.98934 32.0007 7.98934H29.0557V9.76735C29.0557 11.6504 28.9697 12.0803 28.5687 12.2903C28.4637 12.3573 24.9077 12.3764 18.9157 12.3664L9.43472 12.3374L9.23472 12.0694C9.05272 11.8204 9.03471 11.6583 9.00571 9.89034L8.97672 7.99034L5.99471 8.00035C4.8516 7.93259 3.70458 7.97916 2.57072 8.13936ZM13.8707 16.9614C14.3107 17.4104 14.2627 17.8213 13.6987 18.4043C12.3897 19.7233 8.77671 22.9923 8.57571 23.0403C8.43815 23.0769 8.29387 23.0803 8.15472 23.0503C6.96861 22.0495 5.88616 20.9318 4.92371 19.7143C4.89167 19.5286 4.91129 19.3377 4.98042 19.1624C5.04956 18.9871 5.16554 18.8342 5.31571 18.7204C5.49678 18.6293 5.69608 18.5805 5.89871 18.5773C6.23371 18.5773 6.33872 18.6534 7.33272 19.6954L8.41271 20.8234L9.10072 20.1734C9.48272 19.8104 10.4767 18.8834 11.3007 18.0994C12.7347 16.7424 12.8207 16.6843 13.1927 16.6843C13.3194 16.6729 13.4469 16.692 13.5646 16.7403C13.6822 16.7885 13.7865 16.8643 13.8687 16.9614H13.8707ZM32.8527 20.2684C33.1527 20.5684 33.1877 20.6503 33.1397 20.9563C33.0888 21.1765 32.9836 21.3803 32.8337 21.5493L32.5947 21.7974H17.3767L17.0987 21.4863C16.9545 21.3542 16.8612 21.1756 16.8351 20.9817C16.809 20.7879 16.8517 20.591 16.9557 20.4253C17.2327 19.9253 16.9937 19.9473 25.0317 19.9383H32.5157L32.8527 20.2684ZM13.8687 26.9964C13.9983 27.1238 14.0881 27.2861 14.1272 27.4637C14.1663 27.6412 14.1529 27.8263 14.0887 27.9964C14.0027 28.2064 8.91771 32.9563 8.65971 33.0623C8.21971 33.2343 7.93372 33.0333 6.51872 31.5813C5.97753 31.0471 5.46386 30.4857 4.97971 29.8993C4.93142 29.8073 4.90461 29.7054 4.90132 29.6015C4.89803 29.4976 4.91834 29.3943 4.96072 29.2993C5.01412 29.0959 5.13708 28.9176 5.30825 28.7954C5.47942 28.6732 5.68797 28.6148 5.89771 28.6304C6.23271 28.6304 6.32772 28.6973 7.33172 29.7483L8.41171 30.8664L8.86072 30.4364C9.11872 30.1974 10.1037 29.2604 11.0607 28.3624C12.7337 26.7854 12.8287 26.7183 13.2017 26.7183C13.3269 26.7091 13.4525 26.7295 13.5684 26.7778C13.6843 26.8261 13.7871 26.9009 13.8687 26.9964ZM32.8317 30.2653C32.9816 30.4344 33.0868 30.6382 33.1377 30.8584C33.1857 31.1644 33.1477 31.2503 32.8507 31.5463L32.5157 31.8813H25.0507C19.4787 31.8813 17.5287 31.8523 17.3507 31.7663C17.1949 31.6796 17.0645 31.5537 16.9723 31.4011C16.88 31.2486 16.8292 31.0746 16.8247 30.8963C16.8545 30.7194 16.9254 30.552 17.0317 30.4075C17.138 30.263 17.2767 30.1455 17.4367 30.0643C17.5417 30.0163 21.0017 29.9883 25.1117 29.9973L32.5957 30.0163L32.8317 30.2653ZM13.8687 37.0323C13.9983 37.1598 14.0881 37.3221 14.1272 37.4997C14.1663 37.6772 14.1529 37.8623 14.0887 38.0323C14.0597 38.1083 13.1047 39.0554 11.9667 40.1254C8.59271 43.2894 8.74572 43.1554 8.34472 43.1554C8.00972 43.1554 7.89572 43.0554 6.51872 41.6554C5.96497 41.1071 5.4447 40.526 4.96072 39.9153C4.918 39.769 4.91009 39.6147 4.93761 39.4647C4.96514 39.3148 5.02733 39.1734 5.11924 39.0517C5.21115 38.9301 5.33022 38.8316 5.46694 38.7642C5.60367 38.6968 5.75427 38.6622 5.90672 38.6633C6.23172 38.6633 6.34672 38.7494 7.33072 39.7814L8.40072 40.9094L8.76372 40.5654C8.96372 40.3834 9.86372 39.5423 10.7517 38.7013C11.6397 37.8603 12.5007 37.0764 12.6517 36.9614C12.8243 36.8133 13.0476 36.738 13.2745 36.7512C13.5015 36.7645 13.7145 36.8652 13.8687 37.0323ZM32.7547 40.2533C32.9219 40.3733 33.0439 40.5461 33.101 40.7438C33.1582 40.9415 33.1471 41.1527 33.0697 41.3433C32.8217 41.9363 33.1367 41.9163 24.9457 41.9163C20.0047 41.9163 17.4137 41.8873 17.2897 41.8163C17.152 41.7084 17.0389 41.5723 16.9582 41.4171C16.8774 41.2618 16.8309 41.0911 16.8217 40.9163C16.8594 40.7278 16.9429 40.5516 17.0651 40.4031C17.1872 40.2547 17.344 40.1387 17.5217 40.0654C17.6367 40.0464 21.0487 40.0273 25.1107 40.0363C32.4397 40.0523 32.4867 40.0523 32.7547 40.2533Z" fill="white"/>
</svg>
