<svg width="38" height="50" viewBox="0 0 38 50" fill="none" xmlns="http://www.w3.org/2000/svg">
<path d="M3.04302 0.68308C2.57372 0.818566 2.1401 1.05598 1.77312 1.37836C1.40615 1.70074 1.11485 2.10016 0.920021 2.5481L0.671021 3.0741V46.9681L0.920021 47.5041C1.24008 48.2233 1.80791 48.8035 2.52002 49.1391L3.16102 49.4551H34.811L35.452 49.1391C36.1641 48.8035 36.732 48.2233 37.052 47.5041L37.301 46.9681L37.33 32.7381C37.34 24.9161 37.33 18.5181 37.301 18.5181C37.1757 18.5623 37.0543 18.6168 36.938 18.6811C36.661 18.8441 36.106 18.8531 30.081 18.8811C25.481 18.9001 23.358 18.8811 22.957 18.8041C22.2542 18.6586 21.5905 18.3651 21.0101 17.943C20.4297 17.5208 19.9459 16.9799 19.591 16.3561C18.979 15.2081 18.979 15.1991 19.008 7.87409C19.037 1.78209 19.046 1.22808 19.208 0.950078C19.2742 0.834738 19.3288 0.713172 19.371 0.587102C19.371 0.558102 15.785 0.539077 11.415 0.549077C5.09902 0.549077 3.35802 0.57808 3.04302 0.68308ZM19.826 19.9241C19.9913 20.0543 20.1392 20.2052 20.266 20.3731C20.457 20.6311 20.466 20.7561 20.496 25.5661L20.525 30.5001L21.692 29.3521C22.945 28.1091 23.174 27.9851 23.93 28.1281C24.1972 28.2072 24.4403 28.3518 24.6373 28.5488C24.8343 28.7458 24.9789 28.9889 25.058 29.2561C25.221 30.0981 25.211 30.1171 22.352 32.9761C20.066 35.2621 19.652 35.6341 19.34 35.6821C18.498 35.8451 18.479 35.8351 15.62 32.9761C12.761 30.1171 12.751 30.1071 12.914 29.2561C12.9931 28.9889 13.1377 28.7458 13.3347 28.5488C13.5317 28.3518 13.7749 28.2072 14.042 28.1281C14.797 27.9851 15.027 28.1091 16.289 29.3521L17.456 30.5091V25.7181C17.456 22.5531 17.494 20.8311 17.561 20.6501C17.7128 20.2769 17.9979 19.9736 18.361 19.7991C18.6 19.714 18.8544 19.6811 19.1071 19.7027C19.3598 19.7242 19.605 19.7997 19.826 19.9241ZM27.457 39.0401C27.6768 39.1695 27.8554 39.3584 27.9722 39.5851C28.089 39.8119 28.1392 40.067 28.117 40.3211C28.1392 40.5751 28.089 40.8303 27.9722 41.057C27.8554 41.2837 27.6768 41.4727 27.457 41.6021C27.199 41.8021 27.103 41.8021 19.195 41.8321C13.754 41.8511 11.076 41.8321 10.837 41.7551C10.6079 41.6721 10.4019 41.5357 10.2359 41.3573C10.0699 41.1789 9.94868 40.9636 9.88235 40.7291C9.81601 40.4947 9.80641 40.2477 9.85435 40.0088C9.90228 39.7699 10.0064 39.5458 10.158 39.3551C10.658 38.7721 10.258 38.7911 19.099 38.8191C27.112 38.8391 27.199 38.8391 27.457 39.0401Z" fill="white"/>
<path d="M22.044 8.22198C21.9533 10.3892 21.9947 12.5598 22.168 14.722C22.2984 14.9863 22.4849 15.2191 22.7144 15.404C22.9439 15.589 23.211 15.7217 23.497 15.793C23.726 15.822 26.586 15.841 29.866 15.822L35.814 15.793L28.929 8.90796L22.044 2.02197V8.22198Z" fill="white"/>
</svg>
