<svg width="52" height="56" viewBox="0 0 52 56" fill="none" xmlns="http://www.w3.org/2000/svg">
<path d="M26.2554 2.52322L23.6384 4.50525L26.2984 6.50525L28.9694 8.50525L29.0984 7.93423C29.3244 6.92223 29.7774 6.79225 31.4784 7.25525C36.0557 8.46377 40.1044 11.1528 42.9935 14.903C45.8826 18.6533 47.4497 23.2542 47.4504 27.9883C47.4527 31.6931 46.4931 35.335 44.6655 38.5577C42.8379 41.7804 40.205 44.4734 37.0244 46.3732C36.4244 46.7392 35.8614 47.0522 35.7964 47.0732C36.037 47.7147 36.371 48.3172 36.7874 48.8612L37.9074 50.6062L38.4994 50.2722C40.7344 48.9957 42.7762 47.4074 44.5634 45.5552C48.1648 41.7525 50.5109 36.9352 51.2844 31.7552C51.5645 29.34 51.5645 26.9005 51.2844 24.4852C50.8895 21.7843 50.068 19.1633 48.8504 16.7202C47.0943 13.1715 44.5415 10.0767 41.3915 7.6778C38.2414 5.27886 34.5794 3.64068 30.6914 2.89124C29.3024 2.62224 29.1294 2.46024 29.0544 1.34024C29.0683 1.06578 29.0283 0.791245 28.9364 0.532227C28.9054 0.543227 27.6984 1.43522 26.2554 2.52322Z" fill="white"/>
<path d="M12.8465 6.13098C10.9044 7.3027 9.12278 8.72194 7.54653 10.353C4.56819 13.4672 2.4311 17.2879 1.33633 21.4556C0.241558 25.6234 0.225112 30.0011 1.28853 34.177C2.93474 40.6254 7.0106 46.1876 12.6635 49.7C15.2588 51.2594 18.0935 52.3801 21.0535 53.017C22.7655 53.362 22.9055 53.48 22.9815 54.643C22.9818 54.9182 23.0106 55.1927 23.0675 55.462C23.0995 55.462 24.3065 54.568 25.7605 53.48L28.3995 51.487L25.7395 49.487L23.0685 47.487L22.9395 48.058C22.7135 49.07 22.2605 49.2 20.5595 48.737C15.9688 47.527 11.9097 44.8273 9.01901 41.0614C6.12831 37.2955 4.56964 32.6764 4.58753 27.929C4.60321 24.2553 5.5622 20.6473 7.37257 17.4506C9.18295 14.2539 11.784 11.5758 14.9265 9.67297C15.4325 9.37297 15.8525 9.11297 15.8745 9.09097C15.9175 9.05897 13.6985 5.71998 13.6345 5.70898C13.3635 5.83344 13.1003 5.97437 12.8465 6.13098Z" fill="white"/>
<path d="M23.9293 16.9663C21.7137 17.3822 19.6775 18.4636 18.0922 20.0663C17.0388 21.098 16.2055 22.3325 15.6426 23.6954C15.0797 25.0582 14.7989 26.5209 14.8173 27.9953C14.809 29.4684 15.0931 30.9285 15.6531 32.2911C16.213 33.6537 17.0377 34.8916 18.0793 35.9332C19.121 36.9749 20.3589 37.7996 21.7215 38.3595C23.084 38.9195 24.5441 39.2035 26.0172 39.1953C27.4942 39.2042 28.9582 38.919 30.3239 38.3565C31.6896 37.794 32.9298 36.9654 33.9721 35.919C35.0145 34.8725 35.8382 33.6292 36.3953 32.2612C36.9525 30.8933 37.2319 29.4282 37.2172 27.9513C37.2151 25.3676 36.3179 22.8644 34.6784 20.8675C33.0388 18.8706 30.7581 17.5034 28.2242 16.9983C26.8036 16.7566 25.3533 16.7458 23.9293 16.9663ZM26.9883 19.8963V20.9523L27.6773 21.2523C28.3037 21.5337 28.8481 21.9701 29.2589 22.5204C29.6698 23.0707 29.9335 23.7167 30.0252 24.3973L30.0573 24.9253L29.0772 24.9573L28.0972 24.9893L28.0322 24.5803C27.9509 24.1869 27.7561 23.826 27.4721 23.542C27.188 23.258 26.827 23.0633 26.4336 22.9819C26.0403 22.9006 25.6317 22.9362 25.2583 23.0843C24.8849 23.2324 24.563 23.4865 24.3323 23.8153C24.0984 24.1351 23.9915 24.5302 24.0322 24.9243C23.9915 25.3184 24.0984 25.7135 24.3323 26.0333C24.7093 26.6153 25.2263 26.8623 26.3463 27.0133C26.8553 27.073 27.3527 27.2078 27.8223 27.4133C28.7886 27.8982 29.5243 28.7451 29.8693 29.7697C30.2143 30.7943 30.1406 31.9138 29.6643 32.8843C29.2121 33.6926 28.5193 34.3399 27.6823 34.7363L26.9932 35.0363V37.1473H25.0543V35.0363L24.3653 34.7363C23.7388 34.4549 23.1944 34.0185 22.7836 33.4682C22.3727 32.9179 22.109 32.2719 22.0172 31.5913L21.9853 31.0633L22.9853 31.0313C23.9443 30.9993 23.9762 31.0093 23.9762 31.2313C24.017 31.5359 24.1228 31.8282 24.2863 32.0884C24.4499 32.3485 24.6674 32.5705 24.9242 32.7393C25.3138 32.9911 25.7781 33.1011 26.2392 33.0509C26.7003 33.0006 27.1301 32.7931 27.4562 32.4632C27.7822 32.1334 27.9848 31.7013 28.0298 31.2396C28.0748 30.778 27.9595 30.3149 27.7033 29.9283C27.3373 29.3683 26.8203 29.1203 25.7033 28.9693C25.1942 28.9096 24.6968 28.7748 24.2273 28.5693C23.2609 28.0845 22.5252 27.2376 22.1802 26.2129C21.8352 25.1883 21.9089 24.0689 22.3852 23.0983C22.8373 22.2897 23.5301 21.642 24.3673 21.2453L25.0562 20.9453V18.8343H26.9952L26.9883 19.8963Z" fill="white"/>
</svg>
