<svg width="44" height="49" viewBox="0 0 44 49" fill="none" xmlns="http://www.w3.org/2000/svg">
<path d="M6.02771 0.461921C4.75632 0.737364 3.59262 1.37698 2.67864 2.30268C1.76466 3.22838 1.13993 4.40011 0.880706 5.6749C0.659702 6.76934 0.726222 7.90239 1.07377 8.96345C1.42132 10.0245 2.03803 10.9773 2.86371 11.7289C4.08577 12.8723 5.69034 13.5187 7.36371 13.5419C8.17386 13.5056 8.97495 13.3561 9.74371 13.0979C10.0837 12.9559 10.1027 12.9279 10.0557 12.6539C9.54027 10.3816 9.65122 8.01209 10.3767 5.79792C10.7235 4.83455 11.1766 3.91284 11.7277 3.0499L12.1527 2.41691L11.7657 2.03892C10.9996 1.34511 10.0812 0.840937 9.08453 0.567023C8.08787 0.293109 7.04082 0.257115 6.02771 0.461921Z" fill="white"/>
<path d="M20.3636 0.472106C18.4518 0.79513 16.6923 1.71797 15.3396 3.10712C14.1386 4.28514 13.28 5.76721 12.8556 7.39511C12.5382 8.84216 12.5123 10.338 12.7796 11.7951C13.1716 13.5518 14.0557 15.1606 15.3284 16.4333C16.6011 17.706 18.2099 18.5901 19.9666 18.9821C21.3559 19.237 22.7808 19.2275 24.1666 18.9541C25.8675 18.541 27.422 17.6678 28.6596 16.4301C29.8973 15.1925 30.7705 13.638 31.1836 11.9371C31.457 10.5513 31.4665 9.12643 31.2116 7.73712C30.6807 5.36566 29.2586 3.28896 27.2395 1.93671C25.2203 0.584449 22.7586 0.0600935 20.3636 0.472106ZM22.4636 3.6831C22.5867 3.85061 22.6564 4.05134 22.6636 4.25909C22.6636 4.42909 22.7206 4.59009 22.7866 4.60809C24.1936 5.01409 24.8076 5.74112 24.2506 6.33612C23.9866 6.61912 23.6086 6.61011 23.1736 6.31711C23.044 6.21849 22.9008 6.13902 22.7486 6.08112C22.6636 6.54261 22.6351 7.01272 22.6636 7.48111V8.86911L23.2116 9.08612C23.7511 9.26662 24.2205 9.61134 24.5543 10.072C24.888 10.5327 25.0692 11.0863 25.0726 11.6551C25.0598 12.0325 24.9997 12.4067 24.8936 12.7691C24.5647 13.5645 23.9571 14.2126 23.1846 14.5921C22.6746 14.8001 22.6656 14.8091 22.6656 15.1921C22.6656 15.7401 22.3826 16.0921 21.9476 16.0921C21.4846 16.0921 21.2476 15.8181 21.2476 15.2921C21.2476 14.9051 21.2286 14.8671 20.9926 14.8201C20.2313 14.725 19.5255 14.3721 18.9926 13.8201C18.9503 13.7335 18.9268 13.639 18.9237 13.5427C18.9205 13.4464 18.9378 13.3505 18.9744 13.2613C19.0109 13.1721 19.0659 13.0917 19.1358 13.0253C19.2056 12.9589 19.2887 12.9081 19.3796 12.8761C19.6436 12.7761 19.7196 12.7821 20.1536 13.0181C20.4094 13.1503 20.6745 13.2639 20.9466 13.3581L21.2466 13.4431V9.8161L20.7086 9.53311C20.1725 9.32315 19.7254 8.93461 19.4426 8.43311C19.2855 8.10049 19.1992 7.73891 19.189 7.37122C19.1788 7.00352 19.245 6.6377 19.3835 6.29691C19.5219 5.95611 19.7296 5.64776 19.9933 5.39133C20.257 5.13489 20.5711 4.93594 20.9156 4.8071C21.1706 4.7131 21.2086 4.65609 21.2466 4.20709C21.3126 3.63109 21.4926 3.44211 21.9646 3.44211C22.0606 3.43822 22.1561 3.45818 22.2424 3.50024C22.3288 3.5423 22.4034 3.60514 22.4596 3.6831H22.4636Z" fill="white"/>
<path d="M17.9308 6.45004C17.7898 6.59193 17.6872 6.76733 17.6327 6.95975C17.5781 7.15216 17.5733 7.35528 17.6188 7.55005C17.6758 7.85005 18.0818 8.26805 18.2048 8.14505C18.2329 7.8028 18.2393 7.45911 18.2238 7.11606L18.1958 6.14307L17.9308 6.45004Z" fill="white"/>
<path d="M22.6591 11.8427C22.6591 13.2117 22.6681 13.2597 22.8381 13.1747C23.0823 12.9982 23.2856 12.771 23.4339 12.5087C23.5821 12.2463 23.6719 11.955 23.6971 11.6548C23.6243 11.226 23.3912 10.8411 23.0451 10.5778C22.9393 10.512 22.8248 10.4612 22.7051 10.4268C22.6574 10.8971 22.642 11.3702 22.6591 11.8427Z" fill="white"/>
<path d="M35.3048 0.463116C34.1555 0.702611 33.0919 1.24737 32.2259 2.04011L31.8389 2.41813L32.3109 3.13612C33.2077 4.53226 33.8137 6.09493 34.0928 7.73066C34.3718 9.3664 34.3181 11.0416 33.9348 12.6561C33.8778 12.9301 33.9069 12.9561 34.2939 13.1091C35.048 13.3718 35.8377 13.5182 36.6359 13.5431C37.8644 13.5326 39.0659 13.181 40.1064 12.5278C41.1469 11.8745 41.9855 10.945 42.5289 9.84312C43.0566 8.82594 43.3001 7.68517 43.2336 6.54115C43.167 5.39713 42.793 4.29227 42.1508 3.34312C41.4295 2.23253 40.3913 1.3642 39.1706 0.850689C37.9499 0.337176 36.6032 0.202148 35.3048 0.463116Z" fill="white"/>
<path d="M2.65612 22.2217C2.19008 22.3792 1.77454 22.6582 1.45247 23.03C1.1304 23.4019 0.913471 23.853 0.824118 24.3367C0.723658 24.8504 0.767576 25.3819 0.950993 25.8721C1.13441 26.3623 1.45014 26.7921 1.86312 27.1137C2.70412 27.7557 1.27712 27.7087 22.1871 27.6897L41.1221 27.6617L41.5561 27.4617C42.1577 27.1887 42.6454 26.7145 42.9351 26.1207C43.14 25.7387 43.2316 25.306 43.1991 24.8737C43.2174 24.3271 43.0704 23.7877 42.7773 23.326C42.4842 22.8643 42.0586 22.5017 41.5561 22.2857L41.1221 22.0857L22.1391 22.0667C3.94112 22.0497 3.13812 22.0497 2.65612 22.2217Z" fill="white"/>
<path d="M12.4878 35.812L17.7478 41.072V44.33C17.7478 47.324 17.7668 47.617 17.9268 47.919C18.0552 48.1307 18.2315 48.3093 18.4415 48.4406C18.6514 48.5719 18.8892 48.6521 19.1358 48.675C19.4188 48.675 24.6228 46.663 25.5008 46.21C25.7407 46.088 25.9358 45.8929 26.0578 45.653C26.2278 45.313 26.2468 45.105 26.2468 43.179V41.073L31.5068 35.813L36.7768 30.543H7.21777L12.4878 35.812Z" fill="white"/>
</svg>
