<svg width="36" height="50" viewBox="0 0 36 50" fill="none" xmlns="http://www.w3.org/2000/svg">
<path d="M16.0723 0.426967C11.8013 0.932649 7.86361 2.98614 5.00432 6.19897C1.95908 9.67835 0.419358 14.2242 0.723324 18.838C1.13832 23.427 3.43232 29.212 7.56832 36.038C10.5373 40.926 16.4763 49.101 17.3683 49.526C17.5613 49.6243 17.775 49.6747 17.9915 49.6729C18.2081 49.6712 18.421 49.6174 18.6123 49.516C19.2963 49.198 23.6063 43.481 26.5123 39.075C32.8273 29.444 35.8123 21.616 35.2663 16.149C35.0003 13.1532 33.959 10.2782 32.2449 7.80685C30.5308 5.3355 28.203 3.35288 25.4903 2.05398C22.5651 0.641132 19.3021 0.0774196 16.0723 0.426967ZM18.6723 6.28897C19.2413 6.58897 19.4433 7.05999 19.4433 8.14999V9.08499L19.8583 9.19097C21.4135 9.54152 22.8427 10.312 23.9902 11.4187C25.1377 12.5253 25.9596 13.9256 26.3663 15.467L26.5493 16.18L27.6003 16.228C28.8443 16.286 29.1623 16.44 29.4223 17.144C29.5265 17.3741 29.5619 17.6295 29.5243 17.8793C29.4867 18.1291 29.3777 18.3627 29.2103 18.552C28.8343 18.995 28.4483 19.121 27.4463 19.121C26.8293 19.121 26.5593 19.16 26.5403 19.237C26.1817 20.8794 25.3872 22.3948 24.2403 23.624C23.0782 24.8282 21.6021 25.6831 19.9793 26.092L19.4683 26.198L19.4293 27.23C19.4003 28.348 19.3133 28.57 18.7453 28.994C18.5188 29.122 18.263 29.1893 18.0028 29.1893C17.7426 29.1893 17.4868 29.122 17.2603 28.994C16.6913 28.57 16.6043 28.348 16.5763 27.23L16.5373 26.198L15.8813 26.044C14.7327 25.7389 13.6565 25.2075 12.7162 24.4807C11.7758 23.754 10.9901 22.8466 10.4053 21.812C10.0492 21.1815 9.78617 20.5028 9.62433 19.797L9.46032 19.17L8.45032 19.121C7.37032 19.063 7.16832 18.996 6.78232 18.543C6.61853 18.3532 6.51263 18.1204 6.47718 17.8723C6.44173 17.6241 6.47822 17.371 6.58233 17.143C6.84233 16.443 7.16032 16.285 8.40432 16.227L9.44532 16.179L9.62832 15.485C10.0348 13.9377 10.8585 12.5319 12.0095 11.4209C13.1605 10.3099 14.5947 9.53643 16.1553 9.18496L16.5553 9.07897V8.14398C16.4917 7.69453 16.5692 7.2364 16.7773 6.83297C16.9026 6.61718 17.0806 6.43673 17.2947 6.30853C17.5088 6.18032 17.7519 6.10856 18.0013 6.09997C18.2371 6.11278 18.4672 6.1773 18.6753 6.28897H18.6723Z" fill="white"/>
</svg>
