<svg width="57" height="35" viewBox="0 0 57 35" fill="none" xmlns="http://www.w3.org/2000/svg">
<path d="M16.2913 17.4989V34.8369H16.5543C16.9483 34.8369 54.0423 31.5659 54.4693 31.4899C54.7509 31.447 55.0181 31.3371 55.2485 31.1695C55.4789 31.002 55.6657 30.7816 55.7933 30.5269C55.9933 30.0999 56.0013 29.5269 56.0013 17.5269C56.0013 8.90689 55.9683 4.89189 55.8813 4.67389C55.7053 4.25339 55.3866 3.90848 54.9813 3.69989C54.7623 3.57989 49.2383 3.05489 35.5203 1.85089C24.9863 0.920891 16.3553 0.150879 16.3333 0.150879C16.3113 0.150879 16.2913 7.9609 16.2913 17.4989ZM23.6203 7.29288C23.84 7.45319 24.0386 7.6407 24.2113 7.85089C24.4413 8.15689 24.4413 8.22288 24.4743 17.4009C24.4963 26.4259 24.4963 26.6449 24.2743 27.0599C24.1281 27.3396 23.908 27.574 23.638 27.7376C23.3681 27.9011 23.0584 27.9876 22.7428 27.9876C22.4271 27.9876 22.1175 27.9011 21.8475 27.7376C21.5775 27.574 21.3575 27.3396 21.2113 27.0599C20.9923 26.6439 20.9923 26.4259 21.0113 17.4009C21.0443 8.22288 21.0443 8.15789 21.2743 7.85089C21.4351 7.60836 21.6527 7.40873 21.9082 7.26932C22.1636 7.12991 22.4493 7.05495 22.7403 7.0509C23.0515 7.03959 23.3586 7.12403 23.6203 7.29288ZM32.8093 8.3869C33.0968 8.53805 33.3472 8.75117 33.5423 9.01089L33.7943 9.38287V25.6169L33.5533 25.9779C33.416 26.2115 33.2256 26.4096 32.9974 26.5559C32.7693 26.7022 32.5099 26.7926 32.2403 26.8199C31.9199 26.8522 31.5968 26.7932 31.3085 26.6499C31.0201 26.5066 30.778 26.2848 30.6103 26.0099L30.3473 25.5939L30.3143 17.8819C30.2923 13.6379 30.3143 9.96189 30.3473 9.69989C30.4277 9.28566 30.643 8.9097 30.9595 8.63074C31.2761 8.35177 31.6762 8.18552 32.0973 8.1579C32.3473 8.1869 32.5892 8.26471 32.8093 8.3869ZM42.2093 9.5679C42.484 9.71574 42.7172 9.93032 42.8873 10.1919L43.1493 10.6079V17.4999C43.1493 24.2599 43.1493 24.3999 42.9193 24.7739C42.7755 25.0626 42.5458 25.2996 42.2618 25.4524C41.9777 25.6051 41.6534 25.6661 41.3333 25.6269C41.0306 25.6291 40.7334 25.5458 40.476 25.3866C40.2186 25.2274 40.0114 24.9987 39.8783 24.7269C39.7253 24.3989 39.7033 23.5999 39.7033 17.4959C39.7033 10.1339 39.6813 10.3639 40.2723 9.81689C40.5252 9.5732 40.8499 9.41747 41.1982 9.3728C41.5466 9.32813 41.9 9.39688 42.2063 9.56888L42.2093 9.5679ZM50.6093 10.8589C51.3093 11.3589 51.2983 11.2199 51.2983 17.8589V23.8649L51.0573 24.2259C50.92 24.4596 50.7296 24.6576 50.5014 24.8039C50.2733 24.9502 50.0139 25.0406 49.7443 25.0679C49.4239 25.1002 49.1008 25.0413 48.8125 24.8979C48.5241 24.7546 48.282 24.5327 48.1143 24.2579L47.8513 23.8419L47.8183 17.9349L47.7853 12.0279L48.0373 11.5359C48.1625 11.2165 48.391 10.9481 48.6864 10.7736C48.9818 10.5991 49.3271 10.5284 49.6673 10.5729C50 10.5871 50.3236 10.6863 50.6073 10.8609L50.6093 10.8589Z" fill="white"/>
<path d="M6.78524 2.07492C3.51424 2.97492 0.933236 3.73792 0.769236 3.84692C0.588975 4.00191 0.424201 4.17406 0.277236 4.36093C0.0472357 4.66093 0.0472358 4.73292 0.0142358 17.3129C-0.0187642 31.4789 -0.0627642 30.6479 0.747236 31.1729C2.61669 31.8374 4.51923 32.4048 6.44724 32.8729C9.36824 33.6609 11.9822 34.3829 12.2782 34.4589L12.7922 34.6119V17.5469C12.7922 3.97193 12.7592 0.492932 12.6612 0.503932C12.5832 0.499932 9.93624 1.21092 6.78524 2.07492Z" fill="white"/>
</svg>
