<svg width="486" height="315" viewBox="0 0 486 315" fill="none" xmlns="http://www.w3.org/2000/svg">
<path d="M-486 385C-486 597.63 -268.41 770 0 770C268.41 770 486 597.63 486 385C486 172.37 268.41 0 0 0C-268.41 0 -486 172.37 -486 385ZM381.038 385C381.038 551.708 210.442 686.851 0 686.851C-210.442 686.851 -381.038 551.708 -381.038 385C-381.038 218.292 -210.442 83.1488 0 83.1488C210.442 83.1488 381.038 218.292 381.038 385Z" fill="#DEF0FD"/>
<path d="M-323.158 385C-323.158 526.385 -178.475 641 0 641C178.475 641 323.158 526.385 323.158 385C323.158 243.615 178.475 129 0 129C-178.475 129 -323.158 243.615 -323.158 385ZM253.366 385C253.366 495.85 139.93 585.711 0 585.711C-139.93 585.711 -253.366 495.85 -253.366 385C-253.366 274.15 -139.93 184.289 0 184.289C139.93 184.289 253.366 274.15 253.366 385Z" fill="#DEF0FD"/>
</svg>
